<?xml version="1.0" encoding="UTF-8"?>
<svg width="24px" height="24px" viewBox="0 0 24 24" version="1.1" xmlns="http://www.w3.org/2000/svg" xmlns:xlink="http://www.w3.org/1999/xlink">
    <title>图标/32*32/PC</title>
    <g id="页面-1" stroke="none" stroke-width="1" fill="none" fill-rule="evenodd">
        <g id="产品详情2" transform="translate(-424, -802)" fill="#8955FA" fill-rule="nonzero">
            <g id="banner" transform="translate(0, 160)">
                <g id="编组-39" transform="translate(240, 100)">
                    <g id="编组-19" transform="translate(0, 444)">
                        <g id="编组-14" transform="translate(0, 98)">
                            <g id="安卓_副本" transform="translate(184.0025, 0)">
                                <path d="M22.4507887,17.010493 L22.2398731,17.010493 C21.3844934,17.010493 20.6931591,16.3425938 20.6931591,15.5194372 L20.6931591,9.48197958 C20.6931591,8.65589367 21.3844934,7.98799442 22.2398731,7.98799442 L22.4507887,7.98799442 C23.3061684,7.98799442 23.9975027,8.65589365 23.9975027,9.48197958 L23.9975027,15.5194372 C23.9975027,16.3425938 23.303239,17.010493 22.4507887,17.010493 L22.4507887,17.010493 Z M18.1563137,19.2514707 L16.4689893,19.2514707 L16.4689893,22.5089442 C16.4689893,23.3321007 15.7747256,24 14.9193459,24 L14.7084303,24 C13.8530506,24 13.1617163,23.3321008 13.1617163,22.5089442 L13.1617163,19.2514707 L10.5574951,19.2514707 L10.5574951,22.5089442 C10.5574951,23.3321007 9.86323141,24 9.00785168,24 L8.79693612,24 C7.94155638,24 7.2472927,23.3321008 7.2472927,22.5089442 L7.2472927,19.2514707 L5.77088384,19.2514707 C4.9155041,19.2514707 4.2241698,18.5835715 4.2241698,17.7604149 L4.2241698,8.6002354 C4.2241698,8.43911935 4.23002857,8.2809327 4.2417461,8.12567541 L19.6854514,8.12567541 C19.697169,8.2809327 19.7030277,8.44204873 19.7030277,8.6002354 L19.7030277,17.7574856 C19.7030277,18.5835715 19.0116934,19.2514707 18.1563137,19.2514707 L18.1563137,19.2514707 Z M8.14075439,2.35186219 L6.84596726,0.187048409 C6.81667343,0.140178284 6.83424973,0.075731862 6.88404923,0.0464380339 L6.94556627,0.0142148229 C6.99536578,-0.0150790052 7.0598122,0.00249729169 7.08910603,0.0522967995 L8.39268131,2.23175749 C9.34766006,1.7923501 10.4139553,1.54628196 11.5417677,1.54628196 L12.3854299,1.54628196 C13.4693014,1.54628196 14.4975148,1.7747738 15.4202703,2.18195801 L16.6974811,0.0522967995 C16.726775,0.0054266745 16.7912214,-0.0121496224 16.8410209,0.0142148229 L16.9025379,0.0464380339 C16.9523374,0.075731862 16.9699137,0.137248901 16.9406199,0.187048409 L15.6751266,2.2991333 C17.7227651,3.29512341 19.2167502,5.19043397 19.6034287,7.44605862 L4.32083941,7.44605862 C4.69872977,5.23144533 6.15170358,3.36249921 8.14075439,2.35186219 L8.14075439,2.35186219 Z M15.4466347,5.14063449 C15.8948303,5.14063449 16.2580737,4.86820191 16.2580737,4.53132288 C16.2580737,4.19444388 15.8948303,3.92201128 15.4466347,3.92201128 C15.0013686,3.92201128 14.6381251,4.19444386 14.6381251,4.53132288 C14.6381251,4.86820188 14.9984392,5.14063449 15.4466347,5.14063449 L15.4466347,5.14063449 Z M8.26964723,5.20801027 C8.7149134,5.20801027 9.07815684,4.93264831 9.07815684,4.59576928 C9.07815684,4.25889028 8.7149134,3.98645768 8.26964723,3.98645768 C7.82145169,3.98645768 7.46113762,4.25889026 7.46113762,4.59576928 C7.45820824,4.93557769 7.82145169,5.20801027 8.26964723,5.20801027 L8.26964723,5.20801027 Z M1.75762959,17.010493 L1.54671403,17.010493 C0.694263703,17.010493 0,16.3425938 0,15.5194372 L0,9.48197958 C0,8.65589367 0.69426368,7.98799442 1.54671403,7.98799442 L1.75762959,7.98799442 C2.61300933,7.98799442 3.30727303,8.65589365 3.30727303,9.48197958 L3.30727303,15.5194372 C3.30727303,16.3425938 2.61593871,17.010493 1.75762959,17.010493 L1.75762959,17.010493 Z" id="形状"></path>
                            </g>
                        </g>
                    </g>
                </g>
            </g>
        </g>
    </g>
</svg>