<?xml version="1.0" encoding="UTF-8"?>
<svg width="24px" height="24px" viewBox="0 0 24 24" version="1.1" xmlns="http://www.w3.org/2000/svg" xmlns:xlink="http://www.w3.org/1999/xlink">
    <title>图标/32*32/PC</title>
    <g id="页面-1" stroke="none" stroke-width="1" fill="none" fill-rule="evenodd">
        <g id="产品详情2" transform="translate(-390, -802)" fill="#8955FA" fill-rule="nonzero">
            <g id="banner" transform="translate(0, 160)">
                <g id="编组-39" transform="translate(240, 100)">
                    <g id="编组-19" transform="translate(0, 444)">
                        <g id="编组-14" transform="translate(0, 98)">
                            <g id="图标/32*32/PC" transform="translate(152.25, 0)">
                                <path d="M16.3221229,12.7522266 C16.2921229,9.71250003 18.8008729,8.25525003 18.9126229,8.18250003 C17.5026229,6.11925002 15.3066229,5.83725002 14.5243729,5.80425002 C12.6553729,5.61525002 10.8778729,6.90450002 9.92912287,6.90450002 C8.98337287,6.90450002 7.51937286,5.83200002 5.96912286,5.86050002 C3.93212285,5.89050002 2.05337284,7.04475002 1.00487284,8.86950003 C-1.11162717,12.5422266 0.46262284,17.9827266 2.52587285,20.9617266 C3.53387285,22.4197266 4.73612285,24.0569766 6.31412286,23.9984766 C7.83362286,23.9377266 8.40887286,23.0152266 10.2456229,23.0152266 C12.0823729,23.0152266 12.5991229,23.9984766 14.2078729,23.9684766 C15.8428729,23.9377266 16.8793729,22.4827266 17.8806229,21.0202266 C19.0378729,19.3289766 19.5148729,17.6909766 19.5426229,17.6069766 C19.5066229,17.5904766 16.3536229,16.3829766 16.3221229,12.7522266 L16.3221229,12.7522266 Z M13.3003729,3.83250001 C14.1381229,2.81625001 14.7036229,1.40625 14.5491229,0 C13.3423729,0.0495000002 11.8798729,0.804000002 11.0143729,1.81725001 C10.2373729,2.71650001 9.55787287,4.15200001 9.74012287,5.53050002 C11.0871229,5.63550002 12.4618729,4.84575002 13.3003729,3.83250001 Z" id="形状"></path>
                            </g>
                        </g>
                    </g>
                </g>
            </g>
        </g>
    </g>
</svg>