<?xml version="1.0" encoding="UTF-8"?>
<svg width="24px" height="24px" viewBox="0 0 24 24" version="1.1" xmlns="http://www.w3.org/2000/svg" xmlns:xlink="http://www.w3.org/1999/xlink">
    <title>图标/32*32/PC</title>
    <g id="页面-1" stroke="none" stroke-width="1" fill="none" fill-rule="evenodd">
        <g id="产品详情2" transform="translate(-356, -802)" fill="#8955FA" fill-rule="nonzero">
            <g id="banner" transform="translate(0, 160)">
                <g id="编组-39" transform="translate(240, 100)">
                    <g id="编组-19" transform="translate(0, 444)">
                        <g id="编组-14" transform="translate(0, 98)">
                            <g id="图标/32*32/PC" transform="translate(116, 0)">
                                <path d="M12,0 C18.6257324,0 24,5.37145536 24,12 C24,18.6285446 18.6285446,24 12,24 C5.37145536,24 0,18.6257324 0,12 C0,5.37426764 5.37426764,0 12,0 Z M8.18654793,16.0103117 C7.71127256,15.4366065 7.12350598,15.2341223 6.41199906,15.4000469 L6.23201312,15.4478556 L5.52331849,16.665573 C5.22519252,17.1181753 5.34773492,17.7264972 5.79784534,18.0283723 C6.24795577,18.3302474 6.85727452,18.2127621 7.1628779,17.7651746 L7.23599719,17.6526834 Z M13.4511366,7.99250059 C12.8661823,8.4762128 12.2756035,9.90766346 13.1024139,11.3363019 L16.7499414,17.6554957 C17.014956,18.0946205 17.5714847,18.2586019 18.0322633,18.0333323 C18.4930419,17.8080628 18.7054483,17.2681576 18.521678,16.7893133 L18.4626201,16.6683853 L17.5008202,14.9978908 L18.9294586,14.9978908 C19.1914857,14.9986405 19.4429969,14.8948825 19.6282788,14.7096006 C19.8135607,14.5243187 19.9173187,14.2728075 19.9165731,14.0107804 C19.917495,13.5132328 19.5469783,13.0932334 19.053199,13.0321069 L18.9294586,13.02367 L16.3618467,13.02367 L13.7267401,8.46777596 Z M13.785798,4.33934849 C13.3567675,4.09272697 12.8115257,4.20081456 12.5090227,4.59245371 L12.4359034,4.70213265 L11.9943754,5.46144832 L11.5640966,4.70213265 C11.299082,4.26300784 10.7425533,4.09902645 10.2817747,4.324296 C9.82099604,4.54956555 9.60858968,5.08947075 9.79235997,5.56831498 L9.85141786,5.68924303 L10.8582142,7.43848137 L7.63534099,13.0208577 L5.11835013,13.0208577 C4.85632306,13.020108 4.60481183,13.1238661 4.41952996,13.309148 C4.23424808,13.4944298 4.13049002,13.7459411 4.13123571,14.0079681 C4.13123571,14.5141786 4.50527303,14.9275838 4.9946098,14.9894539 L5.11835013,14.9978908 L14.0923365,14.9978908 C14.5001172,14.2301383 14.0192172,13.1389735 13.1192876,13.0321069 L12.973049,13.02367 L9.91047574,13.02367 L14.1429576,5.69205531 C14.2742031,5.4650196 14.3097129,5.19509024 14.2416506,4.94183516 C14.1735883,4.68858009 14.0075487,4.47281712 13.785798,4.33934849 Z" id="形状结合"></path>
                            </g>
                        </g>
                    </g>
                </g>
            </g>
        </g>
    </g>
</svg>