<?xml version="1.0" encoding="UTF-8"?>
<svg width="60px" height="60px" viewBox="0 0 60 60" version="1.1" xmlns="http://www.w3.org/2000/svg" xmlns:xlink="http://www.w3.org/1999/xlink">
    <title>图标/100*100/左引号</title>
    <g id="页面-1" stroke="none" stroke-width="1" fill="none" fill-rule="evenodd">
        <g id="产品详情2" transform="translate(-280, -5222)" fill="#8955FA" fill-rule="nonzero">
            <g id="编组-32" transform="translate(240, 5182)">
                <g id="图标/100*100/左引号" transform="translate(47.5, 49.9742)">
                    <path d="M10.0515464,40.0515464 C7.06185567,40.0515464 4.63917526,38.8917526 2.78350515,36.5721649 C0.927835052,34.2525773 -7.10542736e-15,30.6701031 -7.10542736e-15,25.8247423 C-7.10542736e-15,18.814433 1.82989691,13.0412371 5.48969072,8.50515464 C9.14948454,3.96907216 13.9690722,1.13402062 19.9484536,0 L19.9484536,7.26804124 C12.9381443,9.43298969 9.22680412,14.4329897 8.81443299,22.2680412 C9.12371134,22.1649485 9.58762887,22.1134021 10.2061856,22.1134021 C12.7835052,22.1134021 14.8195876,22.9896907 16.314433,24.742268 C17.8092784,26.4948454 18.556701,28.6082474 18.556701,31.0824742 C18.556701,33.556701 17.757732,35.6701031 16.1597938,37.4226804 C14.5618557,39.1752577 12.5257732,40.0515464 10.0515464,40.0515464 Z M35.1030928,40.0515464 C32.1134021,40.0515464 29.6907216,38.8917526 27.8350515,36.5721649 C25.9793814,34.2525773 25.0515464,30.6701031 25.0515464,25.8247423 C25.0515464,18.814433 26.8814433,13.0412371 30.5412371,8.50515464 C34.2010309,3.96907216 39.0206186,1.13402062 45,0 L45,7.26804124 C37.9896907,9.43298969 34.2783505,14.4329897 33.8659794,22.2680412 C34.1752577,22.1649485 34.6391753,22.1134021 35.257732,22.1134021 C37.8350515,22.1134021 39.871134,22.9896907 41.3659794,24.742268 C42.8608247,26.4948454 43.6082474,28.6082474 43.6082474,31.0824742 C43.6082474,33.556701 42.8092784,35.6701031 41.2113402,37.4226804 C39.6134021,39.1752577 37.5773196,40.0515464 35.1030928,40.0515464 Z" id="形状"></path>
                </g>
            </g>
        </g>
    </g>
</svg>