<?xml version="1.0" encoding="UTF-8"?>
<svg width="24px" height="24px" viewBox="0 0 24 24" version="1.1" xmlns="http://www.w3.org/2000/svg" xmlns:xlink="http://www.w3.org/1999/xlink">
    <title>图标/32*32/勾</title>
    <g id="页面-1" stroke="none" stroke-width="1" fill="none" fill-rule="evenodd">
        <g id="产品详情2" transform="translate(-240, -474)" fill="#000000">
            <g id="banner" transform="translate(0, 160)">
                <g id="编组-39" transform="translate(240, 100)">
                    <g id="编组-38" transform="translate(0, 210)">
                        <g id="图标/32*32/勾" transform="translate(1.1509, 8.3557)">
                            <path d="M6.58363094,15.0689123 L0.219669914,8.70495129 C-0.0732233047,8.41205807 -0.0732233047,7.93718434 0.219669914,7.64429112 C0.512563133,7.3513979 0.987436867,7.3513979 1.28033009,7.64429112 L7.136,13.5 L20.4178993,0.219669914 C20.7107925,-0.0732233047 21.1856663,-0.0732233047 21.4785595,0.219669914 C21.7714527,0.512563133 21.7714527,0.987436867 21.4785595,1.28033009 L7.68997724,15.0689123 C7.55684396,15.2020456 7.3861114,15.2746638 7.21196072,15.2867668 L7.06164747,15.2867668 C6.88749679,15.2746638 6.71676423,15.2020456 6.58363094,15.0689123 Z" id="形状结合"></path>
                        </g>
                    </g>
                </g>
            </g>
        </g>
    </g>
</svg>